<mxfile host="app.diagrams.net" modified="2023-10-15T05:48:54.602Z" agent="Mozilla/5.0 (Windows NT 10.0; Win64; x64) AppleWebKit/537.36 (KHTML, like Gecko) Chrome/117.0.0.0 Safari/537.36" etag="tBgCnMxhCyI6qkD6VUnG" version="22.0.4" type="github">
  <diagram name="Page-1" id="2YBvvXClWsGukQMizWep">
    <mxGraphModel dx="1434" dy="828" grid="1" gridSize="10" guides="1" tooltips="1" connect="1" arrows="1" fold="1" page="1" pageScale="1" pageWidth="850" pageHeight="1100" math="0" shadow="0">
      <root>
        <mxCell id="0" />
        <mxCell id="1" parent="0" />
        <mxCell id="3YjP-VtUZFRfEI36QcWI-23" value="Patient&lt;br&gt;" style="shape=umlActor;verticalLabelPosition=bottom;verticalAlign=top;html=1;outlineConnect=0;" parent="1" vertex="1">
          <mxGeometry x="50" y="20" width="30" height="60" as="geometry" />
        </mxCell>
        <mxCell id="3YjP-VtUZFRfEI36QcWI-24" value="Patient" style="shape=umlActor;verticalLabelPosition=bottom;verticalAlign=top;html=1;outlineConnect=0;" parent="1" vertex="1">
          <mxGeometry x="50" y="560" width="30" height="60" as="geometry" />
        </mxCell>
        <mxCell id="3YjP-VtUZFRfEI36QcWI-29" value="Waitlist&lt;br&gt;Database" style="shape=cylinder3;whiteSpace=wrap;html=1;boundedLbl=1;backgroundOutline=1;size=15;" parent="1" vertex="1">
          <mxGeometry x="610" y="25" width="60" height="80" as="geometry" />
        </mxCell>
        <mxCell id="3YjP-VtUZFRfEI36QcWI-30" value="Waitlist&lt;br&gt;Database" style="shape=cylinder3;whiteSpace=wrap;html=1;boundedLbl=1;backgroundOutline=1;size=15;" parent="1" vertex="1">
          <mxGeometry x="610" y="560" width="60" height="80" as="geometry" />
        </mxCell>
        <mxCell id="W2MoO-iMPBUgyV7A-cYE-4" value="Authorization" style="rounded=0;whiteSpace=wrap;html=1;" vertex="1" parent="1">
          <mxGeometry x="160" y="50" width="120" height="30" as="geometry" />
        </mxCell>
        <mxCell id="W2MoO-iMPBUgyV7A-cYE-7" value="" style="endArrow=none;dashed=1;html=1;dashPattern=1 3;strokeWidth=2;rounded=0;" edge="1" parent="1">
          <mxGeometry width="50" height="50" relative="1" as="geometry">
            <mxPoint x="65" y="550" as="sourcePoint" />
            <mxPoint x="65" y="110" as="targetPoint" />
          </mxGeometry>
        </mxCell>
        <mxCell id="W2MoO-iMPBUgyV7A-cYE-10" value="" style="endArrow=none;dashed=1;html=1;dashPattern=1 3;strokeWidth=2;rounded=0;entryX=0.5;entryY=1;entryDx=0;entryDy=0;exitX=0.5;exitY=0;exitDx=0;exitDy=0;" edge="1" parent="1" source="W2MoO-iMPBUgyV7A-cYE-40" target="W2MoO-iMPBUgyV7A-cYE-15">
          <mxGeometry width="50" height="50" relative="1" as="geometry">
            <mxPoint x="510" y="550" as="sourcePoint" />
            <mxPoint x="509.5" y="120" as="targetPoint" />
          </mxGeometry>
        </mxCell>
        <mxCell id="W2MoO-iMPBUgyV7A-cYE-12" value="" style="endArrow=none;dashed=1;html=1;dashPattern=1 3;strokeWidth=2;rounded=0;entryX=0.5;entryY=1;entryDx=0;entryDy=0;exitX=0.5;exitY=0;exitDx=0;exitDy=0;" edge="1" parent="1" source="W2MoO-iMPBUgyV7A-cYE-39" target="W2MoO-iMPBUgyV7A-cYE-16">
          <mxGeometry width="50" height="50" relative="1" as="geometry">
            <mxPoint x="365" y="550" as="sourcePoint" />
            <mxPoint x="364.5" y="120" as="targetPoint" />
          </mxGeometry>
        </mxCell>
        <mxCell id="W2MoO-iMPBUgyV7A-cYE-13" value="" style="endArrow=none;dashed=1;html=1;dashPattern=1 3;strokeWidth=2;rounded=0;entryX=0.5;entryY=1;entryDx=0;entryDy=0;exitX=0.5;exitY=0;exitDx=0;exitDy=0;" edge="1" parent="1" source="W2MoO-iMPBUgyV7A-cYE-38" target="W2MoO-iMPBUgyV7A-cYE-4">
          <mxGeometry width="50" height="50" relative="1" as="geometry">
            <mxPoint x="220" y="550" as="sourcePoint" />
            <mxPoint x="219.5" y="120" as="targetPoint" />
          </mxGeometry>
        </mxCell>
        <mxCell id="W2MoO-iMPBUgyV7A-cYE-15" value="Waitlist back-end" style="rounded=0;whiteSpace=wrap;html=1;" vertex="1" parent="1">
          <mxGeometry x="450" y="50" width="120" height="30" as="geometry" />
        </mxCell>
        <mxCell id="W2MoO-iMPBUgyV7A-cYE-16" value="Waitlist front-end" style="rounded=0;whiteSpace=wrap;html=1;" vertex="1" parent="1">
          <mxGeometry x="305" y="50" width="120" height="30" as="geometry" />
        </mxCell>
        <mxCell id="W2MoO-iMPBUgyV7A-cYE-18" value="" style="endArrow=none;dashed=1;html=1;dashPattern=1 3;strokeWidth=2;rounded=0;" edge="1" parent="1">
          <mxGeometry width="50" height="50" relative="1" as="geometry">
            <mxPoint x="640" y="550" as="sourcePoint" />
            <mxPoint x="639.5" y="120" as="targetPoint" />
          </mxGeometry>
        </mxCell>
        <mxCell id="W2MoO-iMPBUgyV7A-cYE-19" value="" style="endArrow=classic;html=1;rounded=0;" edge="1" parent="1">
          <mxGeometry width="50" height="50" relative="1" as="geometry">
            <mxPoint x="60" y="120" as="sourcePoint" />
            <mxPoint x="220" y="120" as="targetPoint" />
          </mxGeometry>
        </mxCell>
        <mxCell id="W2MoO-iMPBUgyV7A-cYE-20" value="View Waitlist Request" style="text;html=1;align=center;verticalAlign=middle;resizable=0;points=[];autosize=1;strokeColor=none;fillColor=none;" vertex="1" parent="1">
          <mxGeometry x="70" y="118" width="140" height="30" as="geometry" />
        </mxCell>
        <mxCell id="W2MoO-iMPBUgyV7A-cYE-22" value="" style="endArrow=classic;html=1;rounded=0;" edge="1" parent="1">
          <mxGeometry width="50" height="50" relative="1" as="geometry">
            <mxPoint x="220" y="148" as="sourcePoint" />
            <mxPoint x="220" y="168" as="targetPoint" />
            <Array as="points">
              <mxPoint x="280" y="148" />
              <mxPoint x="280" y="168" />
              <mxPoint x="250" y="168" />
            </Array>
          </mxGeometry>
        </mxCell>
        <mxCell id="W2MoO-iMPBUgyV7A-cYE-23" value="Request Denied" style="text;html=1;align=center;verticalAlign=middle;resizable=0;points=[];autosize=1;strokeColor=none;fillColor=none;" vertex="1" parent="1">
          <mxGeometry x="210" y="120" width="110" height="30" as="geometry" />
        </mxCell>
        <mxCell id="W2MoO-iMPBUgyV7A-cYE-24" value="" style="endArrow=classic;html=1;rounded=0;" edge="1" parent="1">
          <mxGeometry width="50" height="50" relative="1" as="geometry">
            <mxPoint x="220" y="190" as="sourcePoint" />
            <mxPoint x="360" y="190" as="targetPoint" />
          </mxGeometry>
        </mxCell>
        <mxCell id="W2MoO-iMPBUgyV7A-cYE-25" value="Request Granted" style="text;html=1;align=center;verticalAlign=middle;resizable=0;points=[];autosize=1;strokeColor=none;fillColor=none;" vertex="1" parent="1">
          <mxGeometry x="230" y="190" width="110" height="30" as="geometry" />
        </mxCell>
        <mxCell id="W2MoO-iMPBUgyV7A-cYE-27" value="" style="endArrow=classic;html=1;rounded=0;" edge="1" parent="1">
          <mxGeometry width="50" height="50" relative="1" as="geometry">
            <mxPoint x="360" y="220" as="sourcePoint" />
            <mxPoint x="510" y="220" as="targetPoint" />
          </mxGeometry>
        </mxCell>
        <mxCell id="W2MoO-iMPBUgyV7A-cYE-28" value="Request Waitlist&lt;br&gt;&amp;nbsp;Information" style="text;html=1;align=center;verticalAlign=middle;resizable=0;points=[];autosize=1;strokeColor=none;fillColor=none;" vertex="1" parent="1">
          <mxGeometry x="385" y="220" width="110" height="40" as="geometry" />
        </mxCell>
        <mxCell id="W2MoO-iMPBUgyV7A-cYE-29" value="" style="endArrow=classic;html=1;rounded=0;" edge="1" parent="1">
          <mxGeometry width="50" height="50" relative="1" as="geometry">
            <mxPoint x="510" y="260" as="sourcePoint" />
            <mxPoint x="640" y="260" as="targetPoint" />
          </mxGeometry>
        </mxCell>
        <mxCell id="W2MoO-iMPBUgyV7A-cYE-30" value="Query Waitlist&lt;br&gt;Database" style="text;html=1;align=center;verticalAlign=middle;resizable=0;points=[];autosize=1;strokeColor=none;fillColor=none;" vertex="1" parent="1">
          <mxGeometry x="530" y="260" width="100" height="40" as="geometry" />
        </mxCell>
        <mxCell id="W2MoO-iMPBUgyV7A-cYE-31" value="" style="endArrow=classic;html=1;rounded=0;" edge="1" parent="1">
          <mxGeometry width="50" height="50" relative="1" as="geometry">
            <mxPoint x="640" y="330" as="sourcePoint" />
            <mxPoint x="510" y="330" as="targetPoint" />
          </mxGeometry>
        </mxCell>
        <mxCell id="W2MoO-iMPBUgyV7A-cYE-32" value="Return Waitlist&amp;nbsp;&lt;br&gt;Information" style="text;html=1;align=center;verticalAlign=middle;resizable=0;points=[];autosize=1;strokeColor=none;fillColor=none;" vertex="1" parent="1">
          <mxGeometry x="530" y="330" width="100" height="40" as="geometry" />
        </mxCell>
        <mxCell id="W2MoO-iMPBUgyV7A-cYE-34" value="" style="endArrow=classic;html=1;rounded=0;" edge="1" parent="1">
          <mxGeometry width="50" height="50" relative="1" as="geometry">
            <mxPoint x="515" y="370" as="sourcePoint" />
            <mxPoint x="365" y="370" as="targetPoint" />
          </mxGeometry>
        </mxCell>
        <mxCell id="W2MoO-iMPBUgyV7A-cYE-35" value="Send Waitlist&lt;br&gt;Information" style="text;html=1;align=center;verticalAlign=middle;resizable=0;points=[];autosize=1;strokeColor=none;fillColor=none;" vertex="1" parent="1">
          <mxGeometry x="395" y="370" width="90" height="40" as="geometry" />
        </mxCell>
        <mxCell id="W2MoO-iMPBUgyV7A-cYE-36" value="" style="endArrow=classic;html=1;rounded=0;" edge="1" parent="1">
          <mxGeometry width="50" height="50" relative="1" as="geometry">
            <mxPoint x="360" y="410" as="sourcePoint" />
            <mxPoint x="70" y="410" as="targetPoint" />
          </mxGeometry>
        </mxCell>
        <mxCell id="W2MoO-iMPBUgyV7A-cYE-37" value="Display Waitlist&lt;br&gt;Information" style="text;html=1;align=center;verticalAlign=middle;resizable=0;points=[];autosize=1;strokeColor=none;fillColor=none;" vertex="1" parent="1">
          <mxGeometry x="240" y="410" width="100" height="40" as="geometry" />
        </mxCell>
        <mxCell id="W2MoO-iMPBUgyV7A-cYE-38" value="Authorization" style="rounded=0;whiteSpace=wrap;html=1;" vertex="1" parent="1">
          <mxGeometry x="160" y="585" width="120" height="30" as="geometry" />
        </mxCell>
        <mxCell id="W2MoO-iMPBUgyV7A-cYE-39" value="Waitlist front-end" style="rounded=0;whiteSpace=wrap;html=1;" vertex="1" parent="1">
          <mxGeometry x="305" y="585" width="120" height="30" as="geometry" />
        </mxCell>
        <mxCell id="W2MoO-iMPBUgyV7A-cYE-40" value="Waitlist back-end" style="rounded=0;whiteSpace=wrap;html=1;" vertex="1" parent="1">
          <mxGeometry x="450" y="585" width="120" height="30" as="geometry" />
        </mxCell>
      </root>
    </mxGraphModel>
  </diagram>
</mxfile>
